<svg width="18" height="19" viewBox="0 0 18 19" fill="none" xmlns="http://www.w3.org/2000/svg">
<g id="Linear / Essentional, UI / Home Smile">
<path id="Vector" d="M1.5 9.79796C1.5 8.08164 1.5 7.22348 1.8894 6.51208C2.2788 5.80068 2.99021 5.35915 4.41303 4.47611L5.91302 3.54517C7.41704 2.61174 8.16905 2.14502 9 2.14502C9.83095 2.14502 10.583 2.61174 12.087 3.54517L13.587 4.47611C15.0098 5.35915 15.7212 5.80068 16.1106 6.51208C16.5 7.22348 16.5 8.08164 16.5 9.79796V10.9387C16.5 13.8644 16.5 15.3272 15.6213 16.2361C14.7426 17.145 13.3284 17.145 10.5 17.145H7.5C4.67157 17.145 3.25736 17.145 2.37868 16.2361C1.5 15.3272 1.5 13.8644 1.5 10.9387V9.79796Z" stroke="#3085FE" stroke-width="1.2"/>
<path id="Vector_2" d="M6.75 12.645C7.38778 13.1178 8.16342 13.395 9 13.395C9.83658 13.395 10.6122 13.1178 11.25 12.645" stroke="#3085FE" stroke-width="1.2" stroke-linecap="round"/>
</g>
</svg>
